<svg id="Layer_1" data-name="Layer 1" xmlns="http://www.w3.org/2000/svg" xmlns:xlink="http://www.w3.org/1999/xlink" viewBox="0 0 842.88 787.12"><defs><style>.cls-1{fill:none;}.cls-2{fill:url(#linear-gradient);}.cls-3,.cls-7{fill:#fff;}.cls-4{clip-path:url(#clip-path);}.cls-5{clip-path:url(#clip-path-2);}.cls-6{clip-path:url(#clip-path-3);}.cls-7{font-size:242px;font-family:LeagueGothic-Regular, League Gothic;}</style><linearGradient id="linear-gradient" x1="18.88" y1="510.98" x2="823.88" y2="510.98" gradientUnits="userSpaceOnUse"><stop offset="0" stop-color="aqua"/><stop offset="1" stop-color="blue" stop-opacity="0.5"/></linearGradient><clipPath id="clip-path" transform="translate(-129.12 -123)"><rect class="cls-1" x="486.89" y="755.38" width="252.26" height="37.62"/></clipPath><clipPath id="clip-path-2" transform="translate(-129.12 -123)"><rect class="cls-1" x="491.32" y="719.98" width="252.26" height="35.4"/></clipPath><clipPath id="clip-path-3" transform="translate(-129.12 -123)"><rect class="cls-1" x="495.74" y="689" width="252.26" height="30.98"/></clipPath></defs><title>cal_logo</title><path d="M723.26,188.78V141.45h73.23v47.33H815V132.37a9.37,9.37,0,0,0-9.37-9.37H714.08a9.37,9.37,0,0,0-9.37,9.37v56.41Z" transform="translate(-129.12 -123)"/><path d="M304.63,192.12V141.45h73.23v52.6q9.28.24,18.55.41V132.37A9.37,9.37,0,0,0,387,123H295.45a9.37,9.37,0,0,0-9.37,9.37v59.48Q295.37,191.94,304.63,192.12Z" transform="translate(-129.12 -123)"/><path d="M714.08,203.13H387a9.37,9.37,0,0,1,0-18.73h327a9.37,9.37,0,0,1,0,18.73Z" transform="translate(-129.12 -123)"/><rect class="cls-2" x="18.88" y="254" width="805" height="513.96"/><path d="M962.63,910.12H138.49a9.37,9.37,0,0,1-9.37-9.38V386.38a9.37,9.37,0,0,1,9.37-9.38H962.63a9.37,9.37,0,0,1,9.37,9.38V900.93A9.37,9.37,0,0,1,962.63,910.12ZM147.85,891.83H953.27V395.48H147.85Z" transform="translate(-129.12 -123)"/><rect x="374.36" y="444.55" width="394.17" height="394.17" transform="translate(-24.01 -203.02) rotate(8.82)"/><path class="cls-3" d="M430.73,691.21v77.54a26.58,26.58,0,0,1-2.39,10.62,18.21,18.21,0,0,1-5.71,7.17c-2.65,2.12-6.24,3.32-11,3.32s-8.49-1.2-11.15-3.32a17.91,17.91,0,0,1-5.57-7.17,26.58,26.58,0,0,1-2.39-10.62V691.21h14.34v77.54c0,2.78.66,4.64,2,6.1a3.77,3.77,0,0,0,2.78,1.07c2.53,0,3.72-1.6,4.25-3.59a9.23,9.23,0,0,0,.53-3.58V691.21Z" transform="translate(-129.12 -123)"/><path class="cls-3" d="M456.36,738l-1.2-4.52h-.79v55.36H441.22V691.21H454l13.94,50.85,1.19,4.52h.8V691.21H483v97.58H470.3Z" transform="translate(-129.12 -123)"/><g class="cls-4"><path class="cls-3" d="M516.63,726.26v-15a8.87,8.87,0,0,0-1.86-6.11,4.13,4.13,0,0,0-2.92-1.06c-2.52,0-3.72,1.86-4.25,3.59a10.09,10.09,0,0,0-.53,3.58v58.68a8.49,8.49,0,0,0,2,6.11,3.84,3.84,0,0,0,2.79,1.06c2.52,0,3.72-1.59,4.25-3.58a9.28,9.28,0,0,0,.53-3.59V752.28h-5.71V740.2H531v48.59h-8.5l-1.72-4.64a14.28,14.28,0,0,1-11.16,5.71c-4.64,0-7.83-1.2-10.22-3.32a17.71,17.71,0,0,1-5-7.17,26.68,26.68,0,0,1-1.6-10.62V711.26a26.63,26.63,0,0,1,2.39-10.49,16.85,16.85,0,0,1,16.73-10.62,17.87,17.87,0,0,1,11,3.32,18.67,18.67,0,0,1,5.71,7.3A26.46,26.46,0,0,1,531,711.26v15Z" transform="translate(-129.12 -123)"/><path class="cls-3" d="M541.46,691.21h14.33v84.31h19v13.27H541.46Z" transform="translate(-129.12 -123)"/><path class="cls-3" d="M580.62,691.21H595v97.58H580.62Z" transform="translate(-129.12 -123)"/><path class="cls-3" d="M600.54,706V691.21H642V706H628.42v82.84H614.08V706Z" transform="translate(-129.12 -123)"/><path class="cls-3" d="M684.84,755.34v13.41a26.58,26.58,0,0,1-2.39,10.62,18.3,18.3,0,0,1-5.71,7.17c-2.65,2.12-6.24,3.32-11,3.32s-8.5-1.2-11.15-3.32a17.94,17.94,0,0,1-5.58-7.17,26.75,26.75,0,0,1-2.39-10.62V711.26A26.63,26.63,0,0,1,649,700.77a16.85,16.85,0,0,1,16.73-10.62,17.84,17.84,0,0,1,11,3.32,18.67,18.67,0,0,1,5.71,7.3,26.46,26.46,0,0,1,2.39,10.49v13.41H671.43V711.26a8.39,8.39,0,0,0-2.12-6.11,4.76,4.76,0,0,0-3.32-1.06c-2.53,0-3.72,1.86-4.38,3.59a14.07,14.07,0,0,0-.67,3.58v57.49a9.13,9.13,0,0,0,2.26,6.1,3.77,3.77,0,0,0,2.79,1.07,4.63,4.63,0,0,0,4.91-3.59,9.23,9.23,0,0,0,.53-3.58V755.34Z" transform="translate(-129.12 -123)"/><path class="cls-3" d="M719,746.31H707.81v42.48H693.47V691.21h14.34v40.36H719V691.21H733.3v97.58H719Z" transform="translate(-129.12 -123)"/></g><g class="cls-5"><path class="cls-3" d="M521.06,726.26v-15a8.92,8.92,0,0,0-1.86-6.11,4.17,4.17,0,0,0-2.92-1.06c-2.53,0-3.72,1.86-4.25,3.59a10.09,10.09,0,0,0-.53,3.58v58.68c0,2.79.66,4.65,2,6.11a3.81,3.81,0,0,0,2.79,1.06c2.52,0,3.71-1.59,4.24-3.58a9.27,9.27,0,0,0,.54-3.59V752.28h-5.71V740.2h20v48.59H526.9l-1.73-4.64A14.25,14.25,0,0,1,514,789.86c-4.65,0-7.83-1.2-10.22-3.32a17.74,17.74,0,0,1-5.05-7.17,26.87,26.87,0,0,1-1.59-10.62V711.26a26.46,26.46,0,0,1,2.39-10.49,16.82,16.82,0,0,1,16.73-10.62,17.87,17.87,0,0,1,11,3.32,18.64,18.64,0,0,1,5.7,7.3,26.46,26.46,0,0,1,2.39,10.49v15Z" transform="translate(-129.12 -123)"/><path class="cls-3" d="M545.88,691.21h14.34v84.31h19v13.27H545.88Z" transform="translate(-129.12 -123)"/><path class="cls-3" d="M585.05,691.21h14.34v97.58H585.05Z" transform="translate(-129.12 -123)"/><path class="cls-3" d="M605,706V691.21h41.42V706H632.84v82.84H618.5V706Z" transform="translate(-129.12 -123)"/><path class="cls-3" d="M689.26,755.34v13.41a26.41,26.41,0,0,1-2.39,10.62,18.27,18.27,0,0,1-5.7,7.17c-2.66,2.12-6.24,3.32-11,3.32s-8.5-1.2-11.16-3.32a17.91,17.91,0,0,1-5.57-7.17A26.58,26.58,0,0,1,651,768.75V711.26a26.46,26.46,0,0,1,2.39-10.49,16.82,16.82,0,0,1,16.73-10.62,17.87,17.87,0,0,1,11,3.32,18.64,18.64,0,0,1,5.7,7.3,26.29,26.29,0,0,1,2.39,10.49v13.41h-13.4V711.26a8.39,8.39,0,0,0-2.13-6.11,4.74,4.74,0,0,0-3.32-1.06c-2.52,0-3.72,1.86-4.38,3.59a14.08,14.08,0,0,0-.66,3.58v57.49a9.18,9.18,0,0,0,2.25,6.1,3.81,3.81,0,0,0,2.79,1.07,4.62,4.62,0,0,0,4.91-3.59,9.21,9.21,0,0,0,.54-3.58V755.34Z" transform="translate(-129.12 -123)"/><path class="cls-3" d="M723.39,746.31H712.23v42.48H697.9V691.21h14.33v40.36h11.16V691.21h14.33v97.58H723.39Z" transform="translate(-129.12 -123)"/></g><g class="cls-6"><path class="cls-3" d="M525.48,726.26v-15a8.87,8.87,0,0,0-1.86-6.11,4.13,4.13,0,0,0-2.92-1.06c-2.52,0-3.72,1.86-4.25,3.59a10.32,10.32,0,0,0-.53,3.58v58.68a8.49,8.49,0,0,0,2,6.11,3.84,3.84,0,0,0,2.79,1.06c2.52,0,3.72-1.59,4.25-3.58a9.28,9.28,0,0,0,.53-3.59V752.28h-5.71V740.2h20.05v48.59h-8.5l-1.72-4.64a14.28,14.28,0,0,1-11.16,5.71c-4.64,0-7.83-1.2-10.22-3.32a17.71,17.71,0,0,1-5-7.17,26.68,26.68,0,0,1-1.6-10.62V711.26A26.63,26.63,0,0,1,504,700.77a16.85,16.85,0,0,1,16.73-10.62,17.84,17.84,0,0,1,11,3.32,18.67,18.67,0,0,1,5.71,7.3,26.46,26.46,0,0,1,2.39,10.49v15Z" transform="translate(-129.12 -123)"/><path class="cls-3" d="M550.31,691.21h14.34v84.31h19v13.27H550.31Z" transform="translate(-129.12 -123)"/><path class="cls-3" d="M589.47,691.21h14.34v97.58H589.47Z" transform="translate(-129.12 -123)"/><path class="cls-3" d="M609.39,706V691.21h41.42V706H637.27v82.84H622.93V706Z" transform="translate(-129.12 -123)"/><path class="cls-3" d="M693.69,755.34v13.41a26.58,26.58,0,0,1-2.39,10.62,18.21,18.21,0,0,1-5.71,7.17c-2.65,2.12-6.24,3.32-11,3.32s-8.49-1.2-11.15-3.32a18,18,0,0,1-5.58-7.17,26.75,26.75,0,0,1-2.39-10.62V711.26a26.63,26.63,0,0,1,2.39-10.49,16.85,16.85,0,0,1,16.73-10.62,17.84,17.84,0,0,1,11,3.32,18.58,18.58,0,0,1,5.71,7.3,26.46,26.46,0,0,1,2.39,10.49v13.41H680.28V711.26a8.39,8.39,0,0,0-2.12-6.11,4.76,4.76,0,0,0-3.32-1.06c-2.52,0-3.72,1.86-4.38,3.59a14.51,14.51,0,0,0-.67,3.58v57.49a9.18,9.18,0,0,0,2.26,6.1,3.77,3.77,0,0,0,2.79,1.07,4.63,4.63,0,0,0,4.91-3.59,9.23,9.23,0,0,0,.53-3.58V755.34Z" transform="translate(-129.12 -123)"/><path class="cls-3" d="M727.81,746.31H716.66v42.48H702.32V691.21h14.34v40.36h11.15V691.21h14.34v97.58H727.81Z" transform="translate(-129.12 -123)"/></g><text class="cls-7" transform="translate(270.88 536.68)">SYNC</text><path d="M148,377.08h-.15V205.6h147.6a9.37,9.37,0,0,0,0-18.73h-157a9.36,9.36,0,0,0-9.37,9.36V386a9.36,9.36,0,0,0,9.37,9.37H148Z" transform="translate(-129.12 -123)"/><path d="M962.63,186.4h-157a9.37,9.37,0,0,0,0,18.73h147.6v172H953v18.26h9.63a9.36,9.36,0,0,0,9.37-9.08V195.77A9.36,9.36,0,0,0,962.63,186.4Z" transform="translate(-129.12 -123)"/></svg>